<?xml version="1.0" encoding="UTF-8"?>
<svg width="80px" height="80px" viewBox="0 0 80 80" version="1.1" xmlns="http://www.w3.org/2000/svg" xmlns:xlink="http://www.w3.org/1999/xlink">
    <title>0.图标/01.线性/icons_outlined_cellphonenew备份</title>
    <g id="失效优化" stroke="none" stroke-width="1" fill="none" fill-rule="evenodd" >
        <g id="-" transform="translate(-100.000000, -80.000000)" fill="DarkGray">
            <g id="0.图标/01.线性/icons_outlined_cellphonenew备份" transform="translate(100.000000, 80.000000)">
                <path d="M58.3333333,8.33333333 C60.1742825,8.33333333 61.6666667,9.8257175 61.6666667,11.6666667 L61.6666667,68.3333333 C61.6666667,70.1742825 60.1742825,71.6666667 58.3333333,71.6666667 L21.6666667,71.6666667 C19.8257175,71.6666667 18.3333333,70.1742825 18.3333333,68.3333333 L18.3333333,11.6666667 C18.3333333,9.8257175 19.8257175,8.33333333 21.6666667,8.33333333 L58.3333333,8.33333333 Z M57.9684944,10.4686591 L21.9817963,10.4686591 C21.1533692,10.4686591 20.4817963,11.140232 20.4817963,11.9686591 L20.4817963,68.0021717 C20.4817963,68.8305988 21.1533692,69.5021717 21.9817963,69.5021717 L57.9684944,69.5021717 C58.7969216,69.5021717 59.4684944,68.8305988 59.4684944,68.0021717 L59.4684944,11.9686591 C59.4684944,11.140232 58.7969216,10.4686591 57.9684944,10.4686591 Z" id="Rectangle-Copy-4"></path>
                <polygon id="矩形-copy" points="32.8333333 60.0330318 47.2158999 60.0330318 47.2158999 62.4 32.8333333 62.4"></polygon>
            </g>
        </g>
    </g>
</svg>